<?xml version="1.0" encoding="UTF-8"?> <svg xmlns="http://www.w3.org/2000/svg" width="27" height="27" viewBox="0 0 27 27" fill="none"> <path d="M13.8449 26.3109C21.1105 26.3109 27.0004 20.421 27.0004 13.1555C27.0004 5.8899 21.1105 0 13.8449 0C6.57935 0 0.689453 5.8899 0.689453 13.1555C0.689453 20.421 6.57935 26.3109 13.8449 26.3109Z" fill="white"></path> <path d="M20.3337 9.81281C20.2561 9.52382 20.1039 9.26032 19.8923 9.04874C19.6808 8.83717 19.4173 8.68496 19.1283 8.6074C18.0661 8.32226 13.8012 8.32227 13.8012 8.32227C13.8012 8.32227 9.53641 8.32226 8.47296 8.6074C8.18431 8.68564 7.92116 8.83807 7.70969 9.04954C7.49822 9.26102 7.34579 9.52416 7.26755 9.81281C6.98242 10.8763 6.98242 13.0949 6.98242 13.0949C6.98242 13.0949 6.98242 15.3136 7.26755 16.3771C7.34579 16.6657 7.49822 16.9289 7.70969 17.1403C7.92116 17.3518 8.18431 17.5043 8.47296 17.5825C9.53641 17.8676 13.8012 17.8676 13.8012 17.8676C13.8012 17.8676 18.0648 17.8676 19.1283 17.5825C19.4173 17.5049 19.6808 17.3527 19.8923 17.1411C20.1039 16.9296 20.2561 16.6661 20.3337 16.3771C20.6188 15.3136 20.6188 13.0949 20.6188 13.0949C20.6188 13.0949 20.6188 10.8763 20.3337 9.81281ZM12.4367 15.1399V11.05L15.9856 13.0949L12.4367 15.1399Z" fill="black"></path> </svg> 